#define Trump_width 200
#define Trump_height 292
static unsigned char Trump_bits[] = {
   0xff, 0x5f, 0x95, 0x00, 0x00, 0x00, 0x00, 0x00, 0x00, 0x00, 0x00, 0x00,
   0x00, 0x00, 0x00, 0x00, 0x00, 0xa9, 0xda, 0xb6, 0x00, 0x00, 0x00, 0x00,
   0x00, 0xff, 0xf7, 0x2a, 0x55, 0x89, 0x00, 0x20, 0x00, 0x00, 0x00, 0x00,
   0x00, 0x00, 0x00, 0x00, 0x00, 0x20, 0x55, 0xb5, 0xad, 0x05, 0x00, 0x00,
   0x00, 0x00, 0xff, 0x5d, 0x55, 0x01, 0x00, 0x4a, 0x82, 0x24, 0x91, 0x48,
   0x02, 0x00, 0x00, 0x00, 0x00, 0x00, 0x88, 0xa8, 0xaa, 0xb6, 0x00, 0x00,
   0x00, 0x00, 0x00, 0xff, 0xb7, 0x25, 0x55, 0x12, 0x00, 0x04, 0x00, 0x00,
   0x00, 0x90, 0x04, 0x00, 0x00, 0x00, 0x00, 0x80, 0x52, 0xdb, 0x55, 0x05,
   0x00, 0x00, 0x00, 0x00, 0xff, 0x6f, 0xad, 0x08, 0x40, 0x10, 0x00, 0x00,
   0x02, 0x00, 0x00, 0x90, 0x00, 0x00, 0x00, 0x00, 0x00, 0x55, 0x6d, 0x5f,
   0x00, 0x00, 0x00, 0x00, 0x00, 0xff, 0xbd, 0x95, 0xa2, 0x04, 0x41, 0x90,
   0x24, 0x40, 0x22, 0x02, 0x00, 0x00, 0x00, 0x00, 0x00, 0x00, 0xd2, 0x5a,
   0xd5, 0x02, 0x00, 0x00, 0x00, 0x00, 0xff, 0xd7, 0x2a, 0x09, 0x00, 0x00,
   0x02, 0x00, 0x08, 0x00, 0x90, 0x80, 0x08, 0x00, 0x00, 0x00, 0x00, 0x54,
   0xeb, 0x1e, 0x01, 0x00, 0x00, 0x00, 0x00, 0xff, 0xbf, 0x55, 0xa2, 0x24,
   0x08, 0x00, 0x00, 0x00, 0x00, 0x00, 0x08, 0x00, 0x00, 0x00, 0x00, 0x00,
   0x48, 0xad, 0x75, 0x00, 0x00, 0x00, 0x00, 0x00, 0xff, 0x77, 0x55, 0x09,
   0x80, 0x40, 0x10, 0x20, 0x00, 0x22, 0x02, 0x01, 0x00, 0x00, 0x00, 0x40,
   0x00, 0x50, 0x7d, 0xab, 0x02, 0x00, 0x00, 0x00, 0x00, 0xff, 0x6f, 0x4b,
   0xa2, 0x04, 0x00, 0x40, 0x02, 0x21, 0x00, 0x00, 0x40, 0x00, 0x00, 0x00,
   0x00, 0x00, 0x40, 0xd3, 0x5e, 0x00, 0x00, 0x00, 0x00, 0x00, 0xff, 0xbf,
   0xaa, 0x04, 0x10, 0x01, 0x01, 0x00, 0x00, 0x00, 0x08, 0x04, 0x00, 0x00,
   0x00, 0x00, 0x00, 0x80, 0x6c, 0x93, 0x00, 0x00, 0x00, 0x00, 0x00, 0xff,
   0xf7, 0x96, 0x54, 0x01, 0x10, 0x00, 0x00, 0x02, 0x22, 0x00, 0x00, 0x00,
   0x00, 0x00, 0x00, 0x00, 0x00, 0xa8, 0xae, 0x00, 0x00, 0x00, 0x00, 0x00,
   0xff, 0x5f, 0x55, 0x01, 0x20, 0x02, 0x04, 0x12, 0x00, 0x00, 0x00, 0x00,
   0x00, 0x00, 0x00, 0x00, 0x00, 0x00, 0x50, 0x15, 0x00, 0x00, 0x00, 0x00,
   0x00, 0xff, 0xff, 0x2b, 0x95, 0x04, 0x00, 0x20, 0x00, 0x20, 0x00, 0x00,
   0x00, 0x00, 0x00, 0x00, 0x00, 0x20, 0x00, 0x80, 0xaa, 0x00, 0x00, 0x00,
   0x00, 0x00, 0xff, 0x57, 0x55, 0x44, 0x00, 0x10, 0x00, 0x00, 0x00, 0x00,
   0x00, 0x00, 0x00, 0x00, 0x00, 0x00, 0x00, 0x00, 0x00, 0x10, 0x00, 0x00,
   0x00, 0x00, 0x00, 0xff, 0xbf, 0x55, 0x89, 0x24, 0x81, 0x00, 0x40, 0x02,
   0x01, 0x00, 0x00, 0x00, 0x00, 0x00, 0x00, 0x80, 0x00, 0x00, 0x80, 0x00,
   0x00, 0x00, 0x00, 0x00, 0xff, 0x7f, 0xab, 0x24, 0x00, 0x00, 0x44, 0x02,
   0x00, 0x00, 0x00, 0x00, 0x00, 0x00, 0x00, 0x00, 0x00, 0x00, 0x00, 0x20,
   0x00, 0x00, 0x00, 0x00, 0x00, 0xff, 0xef, 0x2a, 0x09, 0x09, 0x10, 0x00,
   0x04, 0x00, 0x00, 0x00, 0x00, 0x00, 0x00, 0x00, 0x00, 0x00, 0x00, 0x00,
   0x00, 0x00, 0x00, 0x00, 0x00, 0x00, 0xff, 0xbf, 0xab, 0x24, 0x20, 0x01,
   0x00, 0x80, 0x04, 0x00, 0x00, 0x00, 0x00, 0x00, 0x00, 0x00, 0x00, 0x80,
   0x00, 0x00, 0x00, 0x00, 0x00, 0x00, 0x00, 0xff, 0xbf, 0x56, 0x89, 0x02,
   0x40, 0x24, 0x10, 0x10, 0x00, 0x00, 0x00, 0x00, 0x00, 0x00, 0x00, 0x00,
   0x00, 0x00, 0x00, 0x00, 0x00, 0x00, 0x00, 0x00, 0xff, 0xf7, 0x2a, 0x11,
   0x00, 0x02, 0x00, 0x00, 0x00, 0x00, 0x00, 0x00, 0x00, 0x00, 0x00, 0x00,
   0x00, 0x00, 0x00, 0x00, 0x00, 0x00, 0x00, 0x00, 0x00, 0xff, 0xdf, 0x56,
   0xa5, 0x2a, 0x88, 0x40, 0x02, 0x00, 0x00, 0x00, 0x00, 0x00, 0x00, 0x00,
   0x00, 0x00, 0x00, 0x00, 0x00, 0x00, 0x00, 0x00, 0x00, 0x00, 0xff, 0x7f,
   0xab, 0x04, 0x00, 0x00, 0x12, 0x00, 0x00, 0x00, 0x00, 0x00, 0x00, 0x00,
   0x00, 0x00, 0x00, 0x00, 0x00, 0x00, 0x00, 0x00, 0x00, 0x00, 0x00, 0xff,
   0x7f, 0x5b, 0x55, 0x82, 0x10, 0x40, 0x48, 0x00, 0x00, 0x00, 0x00, 0x00,
   0x00, 0x00, 0x00, 0x00, 0x00, 0x00, 0x00, 0x00, 0x00, 0x00, 0x00, 0x00,
   0xff, 0xf7, 0x96, 0x88, 0x08, 0x84, 0x00, 0x00, 0x00, 0x00, 0x00, 0x00,
   0x00, 0x00, 0x00, 0x00, 0x00, 0x00, 0x00, 0x00, 0x00, 0x00, 0x00, 0x00,
   0x00, 0xff, 0xdf, 0x55, 0x29, 0x00, 0x00, 0x00, 0x00, 0x00, 0x00, 0x00,
   0x00, 0x00, 0x00, 0x00, 0x00, 0x00, 0x00, 0x00, 0x00, 0x00, 0x00, 0x00,
   0x00, 0x00, 0xff, 0xbf, 0xb6, 0x82, 0x02, 0x00, 0x00, 0x00, 0x00, 0x00,
   0x00, 0x00, 0x00, 0x00, 0x00, 0x00, 0x00, 0x00, 0x00, 0x00, 0x00, 0x00,
   0x00, 0x00, 0x00, 0xff, 0xff, 0x55, 0x2a, 0x24, 0x00, 0x00, 0x00, 0x00,
   0x00, 0x00, 0x00, 0x00, 0x00, 0x00, 0x00, 0x00, 0x00, 0x00, 0x00, 0x00,
   0x00, 0x00, 0x00, 0x00, 0xff, 0xb7, 0x56, 0x81, 0x00, 0x01, 0x00, 0x00,
   0x00, 0x00, 0x00, 0x00, 0x00, 0x00, 0x00, 0x00, 0x00, 0x00, 0x00, 0x00,
   0x00, 0x00, 0x00, 0x00, 0x00, 0xff, 0xff, 0x55, 0x0a, 0x01, 0x00, 0x00,
   0x00, 0x00, 0x00, 0x00, 0x00, 0x00, 0x00, 0x00, 0x00, 0x00, 0x00, 0x00,
   0x00, 0x00, 0x00, 0x00, 0x00, 0x00, 0xff, 0xaf, 0x56, 0x11, 0x00, 0x00,
   0x00, 0x00, 0x00, 0x00, 0x00, 0x00, 0x00, 0x00, 0x00, 0x00, 0x00, 0x00,
   0x00, 0x00, 0x00, 0x00, 0x00, 0x00, 0x00, 0xff, 0xff, 0x55, 0x05, 0x00,
   0x00, 0x00, 0x00, 0x00, 0x00, 0x00, 0x00, 0x00, 0x00, 0x00, 0x00, 0x00,
   0x00, 0x00, 0x00, 0x00, 0x00, 0x00, 0x00, 0x00, 0xff, 0x5f, 0x2b, 0x11,
   0x04, 0x00, 0x00, 0x00, 0x00, 0x00, 0x00, 0x00, 0x00, 0x00, 0x00, 0x00,
   0x00, 0x00, 0x00, 0x00, 0x00, 0x00, 0x00, 0x00, 0x00, 0xff, 0xff, 0x6e,
   0x05, 0x00, 0x00, 0x00, 0x00, 0x00, 0x00, 0x00, 0x00, 0x00, 0x00, 0x00,
   0x00, 0x00, 0x00, 0x00, 0x00, 0x00, 0x00, 0x00, 0x00, 0x00, 0xff, 0xdf,
   0xa9, 0x00, 0x00, 0x00, 0x00, 0x00, 0x00, 0x00, 0x00, 0x00, 0x00, 0x00,
   0x00, 0x00, 0x00, 0x00, 0x00, 0x00, 0x00, 0x00, 0x00, 0x00, 0x00, 0xff,
   0x7f, 0x57, 0x09, 0x00, 0x00, 0x00, 0x00, 0x00, 0x00, 0x00, 0x00, 0x00,
   0x00, 0x00, 0x00, 0x00, 0x00, 0x00, 0x00, 0x00, 0x00, 0x00, 0x00, 0x00,
   0xff, 0xef, 0x2a, 0x01, 0x00, 0x00, 0x00, 0x00, 0x00, 0x00, 0x00, 0x00,
   0x00, 0x00, 0x00, 0x00, 0x00, 0x00, 0x00, 0x00, 0x00, 0x00, 0x00, 0x00,
   0x00, 0xff, 0xbf, 0xaf, 0x02, 0x00, 0x00, 0x00, 0x00, 0x00, 0x00, 0x00,
   0x00, 0x00, 0x00, 0x00, 0x00, 0x00, 0x00, 0x00, 0x40, 0x01, 0x00, 0x00,
   0x00, 0x00, 0xff, 0xff, 0x52, 0x04, 0x00, 0x00, 0x00, 0x00, 0x00, 0x00,
   0x00, 0x00, 0x00, 0x00, 0x00, 0x00, 0x00, 0x00, 0x00, 0xb5, 0x2a, 0x00,
   0x00, 0x00, 0x00, 0xff, 0xdf, 0x6e, 0x01, 0x00, 0x00, 0x00, 0x00, 0x00,
   0x00, 0x00, 0x00, 0x00, 0x00, 0x00, 0x00, 0x00, 0x00, 0x40, 0x54, 0xa5,
   0x00, 0x00, 0x00, 0x00, 0xff, 0xf7, 0x95, 0x08, 0x00, 0x00, 0x00, 0x00,
   0x00, 0x00, 0x00, 0x00, 0x00, 0x00, 0x00, 0x00, 0x00, 0x00, 0x80, 0xaa,
   0x15, 0x00, 0x00, 0x00, 0x00, 0xff, 0xbf, 0x5d, 0x02, 0x00, 0x00, 0x00,
   0x00, 0x00, 0x00, 0x00, 0x00, 0x00, 0x00, 0x00, 0x00, 0x40, 0x00, 0x50,
   0x55, 0x55, 0x01, 0x00, 0x00, 0x00, 0xff, 0x7f, 0x93, 0x00, 0x00, 0x00,
   0x00, 0x00, 0x00, 0x00, 0x00, 0x00, 0x00, 0x00, 0x00, 0x00, 0x00, 0x00,
   0x84, 0xaa, 0x15, 0x08, 0x00, 0x00, 0x00, 0xff, 0xef, 0x77, 0x05, 0x00,
   0x00, 0x00, 0x00, 0x00, 0x00, 0x00, 0x00, 0x00, 0x00, 0x00, 0x00, 0x00,
   0x08, 0xd0, 0xbe, 0x6a, 0x01, 0x00, 0x00, 0x00, 0xff, 0xbf, 0x96, 0x00,
   0x00, 0x00, 0x00, 0x00, 0x00, 0x00, 0x00, 0x00, 0x00, 0x00, 0x00, 0x00,
   0x00, 0x01, 0xa4, 0xd5, 0x55, 0x00, 0x00, 0x00, 0x00, 0xff, 0xed, 0xb5,
   0x02, 0x00, 0x00, 0x00, 0x00, 0x00, 0x00, 0x00, 0x00, 0x00, 0x00, 0x00,
   0x00, 0x00, 0x80, 0x00, 0xb5, 0x56, 0x05, 0x00, 0x00, 0x00, 0xff, 0xbf,
   0x4a, 0x08, 0x00, 0x00, 0x00, 0x00, 0x00, 0x00, 0x00, 0x00, 0x00, 0x00,
   0x12, 0x01, 0x00, 0x10, 0xba, 0x6e, 0x55, 0x02, 0x00, 0x00, 0x00, 0xff,
   0xb7, 0xa3, 0x01, 0x00, 0x00, 0x00, 0x00, 0x00, 0x00, 0x00, 0x00, 0x00,
   0x00, 0x00, 0x8a, 0x14, 0x41, 0xa0, 0xac, 0x55, 0x0a, 0x00, 0x00, 0x00,
   0xff, 0xde, 0x0e, 0x14, 0x00, 0x00, 0x00, 0x00, 0x00, 0x00, 0x00, 0x00,
   0x00, 0x50, 0x02, 0x20, 0x00, 0x04, 0x5d, 0x55, 0x55, 0x01, 0x00, 0x00,
   0x00, 0xff, 0xbb, 0x7a, 0xa1, 0x00, 0x00, 0x00, 0x00, 0x00, 0x00, 0x00,
   0x00, 0x00, 0x00, 0xa8, 0x80, 0xa4, 0x28, 0xa4, 0x6a, 0x5b, 0x06, 0x00,
   0x00, 0x00, 0xdf, 0xee, 0x0a, 0x4a, 0x00, 0x00, 0x00, 0x00, 0x00, 0x00,
   0x00, 0x00, 0x00, 0x44, 0x04, 0x22, 0x09, 0x80, 0xd5, 0x5a, 0x55, 0x01,
   0x00, 0x00, 0x00, 0xff, 0xbb, 0xb6, 0x48, 0x01, 0x00, 0x00, 0x00, 0x00,
   0x00, 0x00, 0x00, 0x00, 0x80, 0x40, 0x84, 0x2a, 0x21, 0xaa, 0xaa, 0x2a,
   0x05, 0x00, 0x00, 0x00, 0xb7, 0xd6, 0x15, 0x2a, 0x02, 0x90, 0x00, 0x00,
   0x00, 0x00, 0x00, 0x00, 0x29, 0x08, 0x8a, 0x28, 0x00, 0xc2, 0xd5, 0xb2,
   0xaa, 0x00, 0x00, 0x00, 0x00, 0xff, 0x5e, 0xab, 0x54, 0x02, 0x00, 0x00,
   0x00, 0x00, 0x00, 0x00, 0x00, 0x40, 0x41, 0xb0, 0x82, 0x52, 0x12, 0xaa,
   0xa6, 0x0a, 0x05, 0x00, 0x00, 0x00, 0xed, 0xb5, 0x2a, 0xd5, 0x04, 0x44,
   0x01, 0x00, 0x00, 0x00, 0x00, 0x48, 0x80, 0x08, 0x45, 0x54, 0x08, 0xa0,
   0x52, 0x55, 0x55, 0x00, 0x00, 0x00, 0x00, 0xaf, 0xd6, 0x2a, 0x95, 0x0a,
   0x00, 0x00, 0x00, 0x00, 0x00, 0x00, 0x00, 0x94, 0x22, 0x00, 0x11, 0x01,
   0x80, 0xa4, 0xaa, 0xaa, 0x04, 0x00, 0x00, 0x00, 0x75, 0xb5, 0xaa, 0x7a,
   0x25, 0x90, 0x0a, 0x00, 0x00, 0x00, 0x80, 0x00, 0x40, 0x8a, 0x0a, 0x00,
   0x08, 0x5a, 0x92, 0xaa, 0x4a, 0x00, 0x00, 0x00, 0x00, 0xdf, 0x57, 0x95,
   0xd6, 0x05, 0x01, 0x10, 0x00, 0x00, 0x00, 0x00, 0x49, 0x88, 0x28, 0x50,
   0x42, 0x40, 0x92, 0x50, 0x55, 0x95, 0x00, 0x00, 0x00, 0x00, 0x52, 0x54,
   0x55, 0xbb, 0x14, 0x84, 0x22, 0x00, 0x00, 0x00, 0x00, 0x00, 0x21, 0xaa,
   0x02, 0x00, 0x80, 0x24, 0x55, 0x55, 0x05, 0x00, 0x00, 0x00, 0x00, 0xde,
   0x55, 0xa5, 0x76, 0x55, 0x08, 0x44, 0x02, 0x00, 0x00, 0x08, 0x20, 0x00,
   0xa1, 0x0a, 0x00, 0x54, 0x29, 0x54, 0xaa, 0x14, 0x00, 0x00, 0x00, 0x00,
   0x29, 0xad, 0xd4, 0x5e, 0x29, 0x80, 0x10, 0x00, 0x00, 0x00, 0x80, 0x04,
   0x52, 0x0a, 0x50, 0x92, 0x00, 0x81, 0x92, 0xaa, 0x02, 0x00, 0x00, 0x00,
   0x00, 0xd7, 0xaa, 0xa2, 0x75, 0x95, 0x12, 0x02, 0x14, 0x00, 0x00, 0x01,
   0x40, 0x00, 0x52, 0x45, 0x00, 0x24, 0x92, 0xa4, 0x48, 0x02, 0x00, 0x00,
   0x00, 0x00, 0x54, 0x55, 0xd5, 0xaf, 0x2a, 0x04, 0x50, 0x41, 0x00, 0x20,
   0x08, 0x09, 0x21, 0xa4, 0x88, 0x2a, 0x01, 0x00, 0x11, 0x55, 0x09, 0x00,
   0x00, 0x00, 0x00, 0x55, 0x49, 0xa4, 0xfe, 0xaa, 0xa8, 0x04, 0x08, 0x09,
   0x82, 0x20, 0x20, 0x84, 0x08, 0x11, 0x20, 0x08, 0x50, 0x24, 0x11, 0x01,
   0x00, 0x00, 0x00, 0x00, 0x2a, 0x95, 0xf2, 0xd7, 0x55, 0x01, 0x90, 0x42,
   0x20, 0x00, 0x00, 0x82, 0x10, 0xa5, 0xa4, 0x88, 0x00, 0x85, 0x90, 0xa4,
   0x04, 0x00, 0x02, 0x00, 0x00, 0xa5, 0xa4, 0xd4, 0x7f, 0x2b, 0xad, 0x04,
   0x08, 0x02, 0x12, 0x02, 0x08, 0x22, 0x10, 0x00, 0x00, 0x20, 0x94, 0x82,
   0x94, 0x00, 0x00, 0x00, 0x00, 0x00, 0x94, 0x8a, 0xf0, 0x5f, 0x55, 0x00,
   0x51, 0x22, 0x90, 0x80, 0x10, 0x21, 0x49, 0x41, 0x01, 0x00, 0x54, 0x21,
   0x14, 0x22, 0x01, 0x00, 0x00, 0x00, 0x00, 0x92, 0x90, 0xaa, 0xda, 0xad,
   0x55, 0x44, 0x80, 0x00, 0x10, 0x00, 0x04, 0x00, 0x0a, 0x08, 0x81, 0x88,
   0x84, 0x40, 0x48, 0x02, 0x00, 0x01, 0x00, 0x00, 0x24, 0x15, 0xf9, 0xbb,
   0xb7, 0x92, 0x10, 0x45, 0x22, 0x82, 0x44, 0x20, 0x91, 0xa4, 0x22, 0x24,
   0x52, 0x2a, 0x00, 0x22, 0x01, 0x00, 0x00, 0x00, 0x00, 0x49, 0x52, 0xf4,
   0x6b, 0xbf, 0x24, 0x45, 0x08, 0x04, 0x10, 0x08, 0x00, 0x00, 0x20, 0x00,
   0x40, 0x0a, 0x40, 0x02, 0x48, 0x00, 0x80, 0x00, 0x00, 0x00, 0x92, 0x88,
   0xfc, 0x7f, 0x57, 0x55, 0x88, 0x22, 0x40, 0x42, 0x02, 0x49, 0x02, 0x00,
   0x42, 0x04, 0x20, 0x00, 0x20, 0xa0, 0x02, 0x80, 0x00, 0x00, 0x00, 0x12,
   0x91, 0xfc, 0xff, 0xde, 0x92, 0x29, 0x88, 0x00, 0x44, 0x20, 0x00, 0x00,
   0x00, 0x88, 0x94, 0x8a, 0x84, 0x00, 0x84, 0x02, 0x80, 0x00, 0x00, 0x00,
   0x20, 0x02, 0xbc, 0xff, 0x55, 0x25, 0x45, 0x21, 0x12, 0x10, 0x04, 0x01,
   0x80, 0x00, 0x00, 0x20, 0x00, 0x00, 0x00, 0x10, 0x01, 0xa0, 0x00, 0x00,
   0x00, 0x45, 0xa8, 0xfc, 0xff, 0x57, 0x55, 0x28, 0x05, 0xa0, 0x82, 0x00,
   0x00, 0x08, 0x00, 0x00, 0x80, 0x2a, 0x08, 0x00, 0x20, 0x05, 0x80, 0x00,
   0x00, 0x00, 0x10, 0x01, 0xfd, 0x7f, 0x55, 0xa5, 0x42, 0x00, 0x08, 0x28,
   0x04, 0x00, 0x00, 0x00, 0x90, 0x2a, 0x81, 0x00, 0x00, 0x80, 0x02, 0x50,
   0x02, 0x00, 0x00, 0x22, 0x2a, 0xdc, 0x7f, 0x55, 0x95, 0x08, 0x95, 0x20,
   0x41, 0x10, 0x00, 0x00, 0x40, 0x02, 0x42, 0x12, 0x4a, 0x00, 0x10, 0x0a,
   0xd0, 0x00, 0x00, 0x00, 0x80, 0x80, 0xfe, 0xff, 0xa5, 0x2a, 0x51, 0x00,
   0x00, 0x04, 0x41, 0x00, 0x00, 0x02, 0x50, 0x88, 0x44, 0x00, 0x20, 0x40,
   0x00, 0xa0, 0x00, 0x00, 0x00, 0x14, 0x10, 0xfc, 0xaf, 0x55, 0x45, 0x82,
   0x24, 0xa4, 0x20, 0x82, 0x00, 0x00, 0x08, 0x05, 0x95, 0x08, 0x00, 0x00,
   0x80, 0x0a, 0xc0, 0x01, 0x00, 0x00, 0x40, 0x42, 0xfe, 0xff, 0xaa, 0x94,
   0x48, 0x00, 0x10, 0x8a, 0x00, 0x00, 0x00, 0xa0, 0x74, 0x29, 0x05, 0x00,
   0x00, 0x08, 0x02, 0xa8, 0x02, 0x00, 0x00, 0x04, 0x04, 0xfc, 0x6f, 0x55,
   0x11, 0x09, 0x12, 0x42, 0x10, 0x0a, 0x00, 0x40, 0x04, 0x49, 0xa5, 0x50,
   0x00, 0x00, 0xa0, 0x00, 0xd0, 0x00, 0x00, 0x00, 0x90, 0x90, 0xfa, 0xdb,
   0x94, 0x04, 0xa0, 0x00, 0x00, 0x41, 0x00, 0x00, 0x00, 0x50, 0x52, 0x0a,
   0x02, 0x00, 0x02, 0x00, 0x0a, 0xd0, 0x00, 0x00, 0x00, 0x02, 0x01, 0xfe,
   0xf7, 0x2a, 0x51, 0x02, 0x22, 0x28, 0x8a, 0x02, 0x00, 0x00, 0x45, 0xaa,
   0x52, 0x14, 0x09, 0x00, 0x80, 0x00, 0xd2, 0x00, 0x00, 0x00, 0x10, 0x24,
   0xfe, 0xdf, 0x2a, 0x04, 0x00, 0x00, 0x01, 0x20, 0x10, 0x00, 0x50, 0x5a,
   0x55, 0x44, 0x01, 0x00, 0x40, 0x28, 0x02, 0xd0, 0x00, 0x00, 0x00, 0x20,
   0x40, 0xfe, 0xdd, 0x4b, 0x41, 0x08, 0x04, 0x40, 0x0a, 0x01, 0x00, 0x42,
   0x42, 0xd5, 0x0a, 0x25, 0x00, 0x00, 0x40, 0x08, 0xe8, 0x00, 0x00, 0x00,
   0x82, 0x04, 0x7d, 0x77, 0x14, 0x04, 0x00, 0x00, 0x04, 0x20, 0x04, 0x00,
   0x88, 0xb4, 0x2a, 0x10, 0x00, 0x01, 0x00, 0x00, 0x41, 0xd2, 0x00, 0x00,
   0x00, 0x04, 0x10, 0x7e, 0xff, 0xa2, 0x88, 0x80, 0x88, 0x20, 0x89, 0x10,
   0x00, 0xa8, 0xaa, 0xaa, 0x45, 0x09, 0x00, 0x01, 0x02, 0x04, 0xe8, 0x00,
   0x00, 0x00, 0x90, 0x40, 0xff, 0x7f, 0x15, 0x00, 0x08, 0x00, 0x08, 0x24,
   0x04, 0xa0, 0x82, 0x54, 0x25, 0x10, 0x20, 0x04, 0x10, 0x10, 0x21, 0xd5,
   0x00, 0x00, 0x00, 0x00, 0x04, 0xfe, 0xff, 0x44, 0x02, 0x00, 0x00, 0x40,
   0x80, 0x00, 0x00, 0xaa, 0x2a, 0xa9, 0x02, 0x01, 0x00, 0x00, 0x00, 0x04,
   0xe8, 0x00, 0x00, 0x00, 0x92, 0x00, 0x7e, 0x5b, 0x11, 0x00, 0x00, 0x20,
   0x11, 0x09, 0x00, 0x41, 0x54, 0xd5, 0x0a, 0x28, 0x40, 0x00, 0x20, 0x24,
   0x90, 0xea, 0x00, 0x00, 0x00, 0x00, 0xa9, 0xee, 0xff, 0x4a, 0x04, 0x11,
   0x01, 0x00, 0x10, 0x20, 0x94, 0x4a, 0x95, 0x52, 0x01, 0x00, 0x00, 0x00,
   0x00, 0x02, 0xd4, 0x01, 0x00, 0x00, 0x04, 0x00, 0xfb, 0x5f, 0x11, 0x00,
   0x00, 0x00, 0x22, 0x40, 0x02, 0x52, 0x52, 0x55, 0x25, 0xa4, 0x04, 0x01,
   0x40, 0x40, 0xa8, 0xda, 0x01, 0x00, 0x00, 0x50, 0x04, 0xfe, 0xff, 0x92,
   0x10, 0x00, 0x40, 0x04, 0x05, 0x80, 0x94, 0xaa, 0x2a, 0x89, 0x00, 0x10,
   0x20, 0x0a, 0x8a, 0x00, 0xf4, 0x01, 0x00, 0x00, 0x00, 0x91, 0xde, 0xaf,
   0x04, 0x00, 0x00, 0x04, 0x10, 0x10, 0x55, 0xa2, 0xa4, 0x5a, 0x52, 0x02,
   0x01, 0x02, 0x80, 0x00, 0x52, 0xd5, 0x03, 0x00, 0x00, 0x09, 0x00, 0xfd,
   0xff, 0x95, 0x00, 0x11, 0x48, 0x42, 0x20, 0x40, 0x54, 0x55, 0xa5, 0x04,
   0x14, 0x00, 0x80, 0x08, 0x24, 0x80, 0xfa, 0x07, 0x00, 0x00, 0x20, 0x92,
   0xff, 0x3f, 0x01, 0x00, 0x00, 0x00, 0x08, 0x85, 0x8a, 0xa2, 0x52, 0x55,
   0x29, 0x00, 0x04, 0x00, 0x00, 0x40, 0x24, 0xdd, 0x07, 0x00, 0x00, 0x42,
   0x80, 0xfe, 0xff, 0x96, 0x04, 0x40, 0x00, 0x21, 0x28, 0x20, 0x2a, 0x95,
   0x2a, 0x42, 0x22, 0x10, 0x12, 0x80, 0x88, 0x48, 0xfa, 0x07, 0x00, 0x00,
   0x08, 0xa2, 0xff, 0xef, 0x02, 0x00, 0x00, 0x12, 0x84, 0x40, 0x95, 0x44,
   0xa9, 0x92, 0x08, 0x08, 0x01, 0x00, 0x09, 0x80, 0x20, 0xfd, 0x0f, 0x00,
   0x00, 0x40, 0x84, 0xfd, 0xbf, 0xaa, 0x88, 0x00, 0x40, 0x10, 0x0a, 0x51,
   0x55, 0x25, 0xa5, 0x22, 0x01, 0x00, 0x00, 0x00, 0x91, 0x8a, 0xfa, 0x03,
   0x00, 0x00, 0x04, 0xd0, 0xff, 0x77, 0x01, 0x00, 0x48, 0x02, 0xa5, 0xa4,
   0x84, 0x94, 0xaa, 0x0a, 0x14, 0x24, 0x09, 0x20, 0x10, 0x00, 0x50, 0xfe,
   0x0f, 0x00, 0x00, 0x48, 0x42, 0xff, 0xff, 0x2a, 0x01, 0x00, 0x10, 0x04,
   0x29, 0x29, 0xa5, 0x24, 0x55, 0xa1, 0x00, 0x90, 0x00, 0x42, 0x52, 0xa5,
   0xfc, 0x0b, 0x00, 0x00, 0x00, 0xe8, 0xfb, 0xaf, 0x00, 0x00, 0x01, 0x40,
   0xa9, 0x52, 0x55, 0x8a, 0x4a, 0x2a, 0x04, 0xa5, 0x00, 0x00, 0x00, 0x00,
   0x50, 0xff, 0x07, 0x00, 0x00, 0x24, 0xc1, 0xf7, 0xfd, 0xab, 0x20, 0x88,
   0x08, 0x2a, 0x4a, 0x85, 0x28, 0xa9, 0xa2, 0x54, 0x00, 0x02, 0x00, 0x08,
   0x4a, 0xc5, 0xfc, 0x0d, 0x00, 0x00, 0x00, 0x64, 0xef, 0x37, 0x00, 0x00,
   0x00, 0x00, 0x50, 0x35, 0xa9, 0x52, 0x2a, 0x14, 0x81, 0x4a, 0x00, 0x00,
   0x80, 0x20, 0x50, 0xff, 0x03, 0x00, 0x00, 0xa4, 0xc0, 0xaf, 0xee, 0x2d,
   0x02, 0x00, 0x48, 0x45, 0x65, 0x2a, 0xa5, 0x4a, 0x45, 0x14, 0x00, 0x00,
   0x00, 0x00, 0x84, 0x52, 0xfd, 0x0f, 0x00, 0x00, 0x00, 0xe4, 0xfb, 0x36,
   0x82, 0x40, 0x00, 0x02, 0x10, 0x49, 0x49, 0x4a, 0x51, 0x2a, 0x41, 0x20,
   0x51, 0x02, 0x10, 0x08, 0xa4, 0xff, 0x13, 0x00, 0x00, 0x92, 0xc0, 0xbf,
   0x7d, 0x15, 0x02, 0x00, 0x20, 0x00, 0x89, 0x92, 0x94, 0x4a, 0x4a, 0x08,
   0x00, 0x40, 0x10, 0x02, 0xa9, 0x68, 0x7d, 0x17, 0x00, 0x00, 0x00, 0xd2,
   0xdf, 0x56, 0x45, 0x00, 0x48, 0x85, 0x10, 0x20, 0x4a, 0xa5, 0x14, 0x11,
   0x21, 0x00, 0x00, 0x02, 0x20, 0x00, 0xd5, 0xff, 0x15, 0x00, 0x00, 0x4a,
   0xa0, 0xb7, 0x6d, 0x15, 0x05, 0x00, 0x10, 0x22, 0x40, 0x00, 0xa8, 0x51,
   0x26, 0x00, 0x20, 0x09, 0x44, 0x04, 0x51, 0x50, 0xfb, 0x15, 0x00, 0x00,
   0x00, 0x55, 0xd4, 0x5e, 0x49, 0x00, 0x00, 0x42, 0x88, 0x02, 0xaa, 0x4a,
   0x8a, 0x92, 0x84, 0x04, 0x20, 0x10, 0x10, 0x84, 0xea, 0xbf, 0x22, 0x00,
   0x00, 0x24, 0xa0, 0x55, 0x75, 0x93, 0x00, 0x20, 0x00, 0x11, 0x04, 0x80,
   0xca, 0x92, 0x14, 0x00, 0x50, 0x89, 0x80, 0x42, 0x20, 0xa9, 0xf6, 0x0a,
   0x00, 0x00, 0x00, 0x29, 0xda, 0xaf, 0x2a, 0x12, 0x04, 0x44, 0x44, 0x12,
   0x2a, 0xa9, 0x54, 0x45, 0x12, 0x81, 0x24, 0x02, 0x28, 0x55, 0x6a, 0x7f,
   0x11, 0x00, 0x00, 0x24, 0xe0, 0x5b, 0xdb, 0xa2, 0x00, 0x40, 0x88, 0x88,
   0xa0, 0x50, 0xa9, 0x11, 0x15, 0x24, 0x5a, 0x09, 0x88, 0x02, 0x40, 0x69,
   0x6d, 0x25, 0x00, 0x00, 0x80, 0xaa, 0xb6, 0xb6, 0x4a, 0x02, 0x10, 0x20,
   0x32, 0x2b, 0x55, 0xaa, 0xaa, 0x4a, 0x89, 0x52, 0xa5, 0x00, 0x28, 0x55,
   0xd5, 0xb7, 0x12, 0x00, 0x00, 0x12, 0xb0, 0x57, 0xad, 0x55, 0x00, 0x00,
   0x05, 0x65, 0xaa, 0xaa, 0xaa, 0x54, 0xad, 0xaa, 0xb6, 0x0a, 0x41, 0x02,
   0x40, 0xa9, 0x5e, 0x05, 0x00, 0x00, 0x80, 0x64, 0x55, 0x75, 0x49, 0x01,
   0x00, 0x50, 0xd4, 0x6a, 0x55, 0x55, 0x95, 0xd6, 0xd2, 0x5a, 0x11, 0x00,
   0x28, 0xaa, 0xea, 0xae, 0x28, 0x00, 0x00, 0x12, 0x68, 0xab, 0x6e, 0x2b,
   0x0a, 0x80, 0x42, 0x49, 0x5b, 0xdf, 0x7b, 0x55, 0x5d, 0xdf, 0xb7, 0x26,
   0x44, 0x40, 0x90, 0xaa, 0x2d, 0x02, 0x00, 0x00, 0x40, 0xaa, 0x55, 0x55,
   0x49, 0x00, 0x24, 0xa8, 0xaa, 0xf6, 0x7a, 0xaf, 0xaa, 0xfd, 0xfd, 0xda,
   0x88, 0x00, 0x08, 0xa5, 0x52, 0x5b, 0x09, 0x00, 0x00, 0x09, 0x48, 0xb5,
   0xb5, 0x2a, 0x11, 0x80, 0x8a, 0xea, 0xd6, 0xef, 0xfd, 0x55, 0xd5, 0xff,
   0xb7, 0x2b, 0x24, 0x11, 0x49, 0xb5, 0x0a, 0x11, 0x00, 0x00, 0x20, 0xd1,
   0xdd, 0x56, 0x45, 0x00, 0x24, 0x50, 0x95, 0x5a, 0xbd, 0x57, 0xaa, 0x7f,
   0x6b, 0x6f, 0x8a, 0x80, 0x44, 0x54, 0xa9, 0x55, 0x04, 0x00, 0x00, 0x04,
   0xd2, 0xf9, 0xaa, 0x9a, 0x22, 0x40, 0x25, 0xa9, 0xf6, 0xf5, 0xdf, 0x25,
   0xe8, 0xef, 0xff, 0xaa, 0x12, 0x48, 0x81, 0xaa, 0x8a, 0x00, 0x00, 0x00,
   0x10, 0x88, 0xbb, 0x55, 0x21, 0x88, 0x08, 0xa8, 0xd6, 0xff, 0xff, 0x3f,
   0x8a, 0xfe, 0xff, 0xef, 0xbf, 0x42, 0x02, 0x54, 0x59, 0x15, 0x02, 0x00,
   0x00, 0x42, 0xa1, 0x76, 0xad, 0x4e, 0x01, 0x21, 0xd5, 0xfe, 0xd5, 0xdf,
   0x6f, 0x91, 0xd0, 0xfb, 0xff, 0xff, 0x4d, 0x28, 0x92, 0x6a, 0x45, 0x20,
   0x00, 0x00, 0x08, 0x94, 0xdd, 0x55, 0x11, 0x04, 0x80, 0xf4, 0xff, 0x7f,
   0xfd, 0x5f, 0x01, 0xfb, 0xbf, 0xff, 0xff, 0x17, 0x85, 0xa4, 0xa8, 0x0a,
   0x09, 0x00, 0x00, 0x20, 0x10, 0x73, 0x55, 0xa5, 0x10, 0x14, 0xfd, 0xff,
   0xff, 0xf5, 0x5f, 0x2a, 0xe4, 0xf7, 0xff, 0xff, 0x5f, 0x88, 0x24, 0xb5,
   0x12, 0x40, 0x00, 0x00, 0x82, 0x20, 0xb5, 0xaa, 0x12, 0x42, 0xa0, 0xfe,
   0xff, 0xff, 0xef, 0x57, 0x80, 0xfa, 0xff, 0xff, 0xff, 0xbf, 0x20, 0x48,
   0xa9, 0x0a, 0x01, 0x01, 0x00, 0x10, 0x45, 0xea, 0x2a, 0x45, 0x08, 0xa0,
   0xfe, 0xff, 0xff, 0xaf, 0xaf, 0x00, 0xd0, 0xfb, 0xff, 0xff, 0xbf, 0x85,
   0x52, 0xb2, 0x22, 0x2d, 0x02, 0x00, 0x02, 0x10, 0xb5, 0x54, 0x15, 0xa1,
   0x44, 0x17, 0xfd, 0xd7, 0xbe, 0x56, 0x02, 0xe5, 0x7e, 0xfd, 0x1f, 0x78,
   0x22, 0x44, 0x55, 0x55, 0x05, 0x04, 0x00, 0x24, 0xa1, 0xea, 0x25, 0x25,
   0x84, 0x88, 0x22, 0x00, 0x94, 0x52, 0x55, 0x00, 0xc8, 0xd2, 0x82, 0x24,
   0x61, 0x49, 0x49, 0xaa, 0xa4, 0x0a, 0x00, 0x00, 0x00, 0x04, 0x55, 0x4a,
   0x92, 0x12, 0x50, 0x00, 0x21, 0x50, 0x55, 0x0b, 0x01, 0xb2, 0xaa, 0x16,
   0x02, 0xa4, 0x20, 0x95, 0xaa, 0xaa, 0x05, 0x00, 0x00, 0xa4, 0x20, 0xd5,
   0x48, 0x05, 0xa0, 0x82, 0x00, 0x42, 0x05, 0x55, 0x2a, 0x10, 0x44, 0x75,
   0xb5, 0xa8, 0x10, 0x25, 0x51, 0x6a, 0x49, 0x05, 0x02, 0x00, 0x00, 0x02,
   0xa2, 0xa2, 0xaa, 0x02, 0x14, 0x08, 0x08, 0x50, 0xad, 0x4a, 0x00, 0xa8,
   0xca, 0x02, 0x02, 0x00, 0x50, 0x4a, 0x55, 0x55, 0x03, 0x00, 0x00, 0x24,
   0x48, 0xa6, 0x8a, 0x04, 0x54, 0x21, 0x40, 0x40, 0x92, 0x5a, 0x89, 0x00,
   0xa8, 0x9a, 0x54, 0x88, 0x44, 0x42, 0x92, 0xa8, 0x52, 0x07, 0x00, 0x00,
   0x80, 0x00, 0x55, 0xf4, 0x29, 0x01, 0x80, 0x10, 0x25, 0xa9, 0x56, 0x12,
   0x00, 0xa8, 0x52, 0x81, 0x20, 0x00, 0x10, 0x49, 0xd5, 0xa4, 0x02, 0x00,
   0x00, 0x09, 0x29, 0xca, 0xd2, 0x03, 0x52, 0x81, 0x42, 0x48, 0xaa, 0x4d,
   0x12, 0x00, 0x80, 0x94, 0x2a, 0x85, 0xaa, 0x20, 0x28, 0xd1, 0xab, 0x02,
   0x00, 0x00, 0x20, 0x00, 0x2a, 0xe9, 0x2b, 0x04, 0x00, 0x88, 0x2a, 0x55,
   0x93, 0x00, 0x00, 0x29, 0xa9, 0x4a, 0x35, 0x00, 0x82, 0x42, 0xea, 0x6a,
   0x01, 0x00, 0x00, 0x82, 0x44, 0xa8, 0xd4, 0xa3, 0x50, 0x41, 0x29, 0x55,
   0xf5, 0x2a, 0x54, 0x00, 0x20, 0x42, 0x55, 0xa4, 0x4a, 0x14, 0xa8, 0xe4,
   0x5f, 0x03, 0x00, 0x00, 0x08, 0x10, 0x55, 0xea, 0x03, 0x25, 0x00, 0x40,
   0xaa, 0xad, 0x92, 0x00, 0x00, 0x84, 0x14, 0xab, 0x4a, 0x00, 0x81, 0x22,
   0xe9, 0xe5, 0x00, 0x00, 0x00, 0x10, 0x01, 0xa8, 0xa8, 0x23, 0x08, 0x02,
   0x92, 0x68, 0xbb, 0x10, 0x25, 0x00, 0x90, 0x20, 0x54, 0x55, 0x21, 0x12,
   0xa4, 0xd2, 0x97, 0x00, 0x00, 0x00, 0x40, 0x24, 0x18, 0xd5, 0x91, 0x52,
   0x00, 0x40, 0x55, 0x45, 0x22, 0x00, 0x00, 0x04, 0x85, 0xa8, 0x02, 0x80,
   0x08, 0x89, 0xe4, 0x6d, 0x01, 0x00, 0x00, 0x05, 0x00, 0x71, 0xb1, 0x01,
   0x92, 0x00, 0x04, 0x90, 0x0a, 0x44, 0x4a, 0x00, 0x28, 0x14, 0x01, 0x04,
   0x10, 0x00, 0x91, 0x84, 0x95, 0x00, 0x00, 0x00, 0x20, 0x49, 0x20, 0xea,
   0xa0, 0x48, 0x02, 0x00, 0x00, 0x50, 0x09, 0x00, 0x00, 0x80, 0x00, 0x00,
   0x00, 0x42, 0x12, 0x54, 0xd2, 0x6b, 0x01, 0x00, 0x00, 0x00, 0x00, 0x64,
   0xa4, 0x01, 0x49, 0x10, 0x00, 0x00, 0x01, 0x50, 0x09, 0x00, 0x10, 0x2a,
   0x40, 0x08, 0x08, 0x80, 0x84, 0x44, 0x8f, 0x00, 0x00, 0x00, 0x12, 0x89,
   0xa0, 0x54, 0x20, 0x12, 0x01, 0x49, 0x09, 0x00, 0x01, 0x00, 0x00, 0x42,
   0x00, 0x09, 0x40, 0xa0, 0x14, 0x29, 0xd2, 0xb5, 0x00, 0x00, 0x00, 0x20,
   0x10, 0x40, 0xa1, 0x40, 0x52, 0x04, 0x00, 0x20, 0x10, 0x08, 0x11, 0x00,
   0x80, 0x24, 0x80, 0x80, 0x04, 0x40, 0x48, 0x02, 0xab, 0x00, 0x00, 0x00,
   0x04, 0x82, 0x84, 0x54, 0x20, 0x89, 0x10, 0x89, 0x8a, 0x02, 0x20, 0x00,
   0x00, 0x24, 0x00, 0x00, 0x08, 0x90, 0x88, 0x92, 0xc8, 0xaa, 0x00, 0x00,
   0x00, 0x40, 0x00, 0x48, 0xa1, 0x42, 0xa2, 0x22, 0x10, 0x00, 0x00, 0x04,
   0x02, 0x00, 0x00, 0x49, 0x02, 0x00, 0x02, 0x11, 0x92, 0x02, 0xad, 0x00,
   0x00, 0x00, 0x00, 0x24, 0x00, 0x0a, 0x81, 0x94, 0x08, 0x41, 0x15, 0x00,
   0x20, 0x00, 0x00, 0x21, 0x22, 0x00, 0x10, 0x14, 0xa4, 0x44, 0x54, 0x53,
   0x01, 0x00, 0x00, 0x09, 0x00, 0x91, 0x50, 0x12, 0x91, 0x22, 0x08, 0x40,
   0x44, 0x40, 0x0a, 0x00, 0x44, 0x05, 0x24, 0x81, 0x50, 0x81, 0x14, 0x81,
   0x4e, 0x00, 0x00, 0x00, 0x20, 0x41, 0x00, 0x05, 0x41, 0x4a, 0x8a, 0x84,
   0x08, 0x00, 0x92, 0x00, 0x00, 0x80, 0x4a, 0x00, 0x00, 0x00, 0x54, 0xa2,
   0xaa, 0x95, 0x00, 0x00, 0x00, 0x00, 0x04, 0x20, 0x20, 0x84, 0x90, 0x90,
   0x10, 0x91, 0x00, 0xa0, 0x02, 0x00, 0x10, 0x55, 0x02, 0x08, 0xaa, 0x92,
   0x08, 0x80, 0x55, 0x00, 0x00, 0x00, 0x04, 0x00, 0x81, 0x0a, 0x12, 0x45,
   0x15, 0x02, 0x00, 0x00, 0xd2, 0x00, 0x00, 0x40, 0x15, 0x90, 0x40, 0x40,
   0x24, 0xa5, 0x55, 0x44, 0x00, 0x00, 0x00, 0x40, 0x10, 0x04, 0x14, 0x24,
   0x88, 0xa4, 0xa4, 0x94, 0x44, 0x50, 0x01, 0x00, 0x00, 0x5d, 0x01, 0x01,
   0x89, 0x44, 0x24, 0x25, 0x48, 0x00, 0x00, 0x00, 0x10, 0x02, 0x00, 0x05,
   0x80, 0x12, 0x29, 0x00, 0x00, 0x00, 0x6a, 0x00, 0x00, 0x40, 0x14, 0x00,
   0x08, 0x50, 0xa9, 0x92, 0x98, 0x10, 0x00, 0x00, 0x00, 0x00, 0x80, 0x20,
   0x18, 0x28, 0x50, 0xaa, 0x4a, 0x02, 0x48, 0x54, 0x00, 0x80, 0x00, 0xdc,
   0x12, 0x20, 0x02, 0x12, 0x84, 0x32, 0x50, 0x00, 0x00, 0x00, 0x00, 0x10,
   0x04, 0x02, 0x40, 0x85, 0x92, 0x00, 0x88, 0x80, 0x3a, 0x01, 0x08, 0x20,
   0x58, 0x40, 0x80, 0xa8, 0xa4, 0x28, 0x89, 0x24, 0x00, 0x00, 0x00, 0x22,
   0x01, 0x00, 0x04, 0x00, 0x10, 0x24, 0x55, 0x11, 0x14, 0x14, 0x24, 0x11,
   0x80, 0xd8, 0x8a, 0x14, 0x42, 0x29, 0x21, 0x05, 0x10, 0x00, 0x00, 0x00,
   0x00, 0x00, 0x20, 0x02, 0x51, 0x45, 0xa9, 0x00, 0x40, 0xa2, 0x1a, 0x80,
   0x40, 0x24, 0xb0, 0x02, 0x40, 0x94, 0x4a, 0x8a, 0xa4, 0x40, 0x00, 0x00,
   0x00, 0x00, 0x20, 0x02, 0x04, 0x22, 0x11, 0x22, 0x55, 0x0a, 0x08, 0x9a,
   0x0a, 0x8a, 0x80, 0x62, 0x95, 0x8a, 0x20, 0x92, 0x10, 0x05, 0x09, 0x00,
   0x00, 0x00, 0x44, 0x02, 0x00, 0x50, 0x50, 0x4a, 0x44, 0x09, 0x21, 0xa2,
   0x4d, 0xa0, 0x20, 0xaa, 0x68, 0x49, 0x10, 0x55, 0x55, 0xa2, 0x14, 0x04,
   0x00, 0x00, 0x00, 0x00, 0x00, 0x20, 0x00, 0x45, 0x00, 0x49, 0x22, 0x40,
   0x28, 0x4d, 0x97, 0x8a, 0xa0, 0xca, 0x13, 0x22, 0x44, 0x44, 0x0a, 0x92,
   0x00, 0x00, 0x00, 0x00, 0x00, 0x88, 0x00, 0x48, 0x88, 0xaa, 0x24, 0x95,
   0x02, 0xa1, 0xae, 0x2a, 0x55, 0x5b, 0xa9, 0x4a, 0x88, 0xa8, 0x92, 0x50,
   0x25, 0x15, 0x00, 0x00, 0x00, 0x08, 0x00, 0x84, 0x90, 0x02, 0x01, 0x24,
   0x11, 0x28, 0xa4, 0xaa, 0x5e, 0x55, 0x7a, 0xab, 0x55, 0x81, 0x92, 0x14,
   0x45, 0x55, 0x00, 0x00, 0x00, 0x00, 0x40, 0x00, 0x00, 0x20, 0x51, 0x4a,
   0x41, 0x4a, 0x81, 0x48, 0xab, 0x5f, 0xdb, 0xfd, 0x55, 0x05, 0x14, 0x24,
   0xa1, 0x14, 0x4a, 0x05, 0x00, 0x00, 0x00, 0x00, 0x10, 0x00, 0x50, 0x40,
   0x08, 0x4a, 0x12, 0x08, 0xa9, 0xa2, 0x7e, 0x5b, 0xff, 0x2b, 0xbb, 0x50,
   0x49, 0x0a, 0x51, 0x29, 0x04, 0x00, 0x00, 0x00, 0x00, 0x01, 0x11, 0xa0,
   0x82, 0xa2, 0x10, 0x49, 0x22, 0xa2, 0xc8, 0xff, 0xbd, 0xff, 0x45, 0x4a,
   0x80, 0xa4, 0xa4, 0x24, 0x41, 0x01, 0x00, 0x00, 0x00, 0x04, 0x00, 0x80,
   0x20, 0x52, 0x84, 0x22, 0x08, 0x40, 0x54, 0x01, 0xff, 0x77, 0xbd, 0x15,
   0x95, 0x12, 0x09, 0x11, 0x49, 0x96, 0x02, 0x00, 0x00, 0x00, 0x00, 0x00,
   0x00, 0x40, 0x49, 0x09, 0x44, 0x51, 0x01, 0x49, 0x40, 0xaf, 0xff, 0x55,
   0x25, 0x2a, 0x40, 0x54, 0x42, 0x52, 0x49, 0x02, 0x00, 0x00, 0x00, 0x20,
   0x24, 0x00, 0x00, 0xd5, 0x52, 0x09, 0x02, 0x24, 0x52, 0x05, 0x54, 0xaa,
   0x55, 0x44, 0xa8, 0x0a, 0x41, 0x94, 0x84, 0x52, 0x01, 0x00, 0x00, 0x00,
   0x00, 0x00, 0x11, 0x01, 0x7d, 0x00, 0x52, 0x94, 0x80, 0x28, 0x00, 0xa8,
   0x7a, 0x55, 0x89, 0xaa, 0x20, 0x94, 0x20, 0x29, 0xad, 0x00, 0x00, 0x00,
   0x00, 0x42, 0x00, 0x00, 0x00, 0xa4, 0xab, 0x04, 0x11, 0x14, 0xa5, 0x20,
   0x11, 0x54, 0x25, 0x11, 0x28, 0x45, 0x21, 0x25, 0x51, 0x2a, 0x00, 0x00,
   0x00, 0x00, 0x00, 0x00, 0x00, 0x04, 0x48, 0x80, 0x52, 0x44, 0x41, 0x08,
   0x02, 0xa0, 0x52, 0x95, 0x44, 0x52, 0x09, 0x8a, 0x40, 0xa4, 0x16, 0x00,
   0x00, 0x00, 0x00, 0x00, 0x11, 0x01, 0x20, 0x48, 0x2b, 0x84, 0x08, 0x88,
   0x52, 0x00, 0x4a, 0x54, 0x25, 0x40, 0x50, 0x52, 0x10, 0x95, 0x44, 0x00,
   0x00, 0x00, 0x00, 0x00, 0x08, 0x00, 0x48, 0x00, 0x81, 0x44, 0x15, 0xa1,
   0x22, 0x0a, 0x2a, 0x81, 0x52, 0x89, 0x0a, 0xc5, 0x44, 0x22, 0xa2, 0xa8,
   0x00, 0x00, 0x00, 0x00, 0x00, 0x00, 0x00, 0x00, 0x00, 0x50, 0x15, 0x21,
   0x04, 0x40, 0x12, 0x00, 0x14, 0xa4, 0x2a, 0x20, 0x88, 0x4a, 0xa4, 0x14,
   0x21, 0x00, 0x00, 0x00, 0x00, 0x00, 0x80, 0x10, 0x00, 0x02, 0x20, 0xa2,
   0x4a, 0x51, 0x8a, 0x44, 0x40, 0xa0, 0x48, 0x91, 0x44, 0xa1, 0x2a, 0x01,
   0x49, 0x54, 0x00, 0x00, 0x00, 0x00, 0x00, 0x08, 0x80, 0x00, 0x10, 0xa8,
   0x24, 0x11, 0x04, 0x20, 0x01, 0x09, 0x04, 0x92, 0x92, 0x08, 0x0a, 0x25,
   0x2a, 0x12, 0x41, 0x00, 0x00, 0x00, 0x00, 0x00, 0x00, 0x00, 0x04, 0x00,
   0x3d, 0x95, 0xa4, 0x50, 0x89, 0x44, 0x80, 0x50, 0x24, 0x05, 0xa2, 0xa8,
   0x8a, 0x80, 0x24, 0xaa, 0x00, 0x00, 0x00, 0x00, 0x00, 0x00, 0x01, 0x40,
   0x00, 0x3e, 0x54, 0x89, 0x02, 0x21, 0x05, 0x14, 0x04, 0x24, 0x50, 0x04,
   0x11, 0x2a, 0x14, 0x48, 0x10, 0x00, 0x00, 0x00, 0x00, 0x00, 0x00, 0x08,
   0x00, 0x00, 0xbf, 0x22, 0x25, 0x24, 0x94, 0x90, 0x40, 0x90, 0x80, 0x04,
   0x51, 0xa5, 0x4a, 0x41, 0x91, 0x62, 0x00, 0x00, 0x00, 0x00, 0x00, 0x00,
   0x00, 0x04, 0xc4, 0x7f, 0x2c, 0x89, 0x84, 0x24, 0x01, 0x09, 0x02, 0x10,
   0x20, 0xa2, 0x2a, 0x2a, 0x08, 0x12, 0x0a, 0x00, 0x00, 0x00, 0x00, 0x00,
   0x08, 0x40, 0x00, 0xe0, 0x7f, 0x49, 0x52, 0x10, 0x48, 0x24, 0xa0, 0x48,
   0x82, 0x4a, 0x88, 0xa2, 0x54, 0x21, 0x44, 0x54, 0x00, 0x00, 0x00, 0x00,
   0x00, 0x00, 0x00, 0x20, 0xe0, 0x7f, 0x54, 0x95, 0x42, 0x91, 0xa0, 0x0a,
   0x80, 0x14, 0xda, 0x52, 0x16, 0x29, 0x85, 0x48, 0x11, 0x00, 0x00, 0x00,
   0x00, 0x00, 0x00, 0x00, 0x00, 0xf0, 0xff, 0xa8, 0x22, 0x14, 0x2a, 0x05,
   0x50, 0x49, 0xd5, 0xaa, 0x4a, 0x55, 0x52, 0x10, 0x12, 0x2a, 0x00, 0x00,
   0x00, 0x00, 0x00, 0x00, 0x00, 0x00, 0xf8, 0x7f, 0x55, 0x95, 0x40, 0x20,
   0xa8, 0x12, 0x51, 0xab, 0xfe, 0xae, 0xaa, 0x44, 0x45, 0x42, 0x10, 0x00,
   0x00, 0x00, 0x00, 0x00, 0x40, 0x00, 0x00, 0xfe, 0xff, 0xa8, 0x4a, 0x0a,
   0x95, 0x44, 0x25, 0x56, 0xff, 0xdd, 0xdd, 0x56, 0x51, 0x08, 0x94, 0x2a,
   0x00, 0x00, 0x00, 0x00, 0x00, 0x00, 0x00, 0x00, 0xfe, 0xff, 0x52, 0x49,
   0x20, 0x20, 0x54, 0xa5, 0xec, 0xb6, 0xff, 0xff, 0x5f, 0x45, 0xa1, 0x10,
   0x08, 0x00, 0x00, 0x00, 0x00, 0x00, 0x00, 0x00, 0x00, 0xff, 0xff, 0x69,
   0x95, 0x8a, 0x8a, 0x52, 0x55, 0xf7, 0xff, 0xff, 0xff, 0x7f, 0x15, 0x15,
   0xa2, 0x0a, 0x00, 0x00, 0x00, 0x00, 0x00, 0x00, 0x00, 0x00, 0xff, 0xff,
   0x52, 0x95, 0x20, 0x90, 0xa4, 0xed, 0xff, 0xff, 0xff, 0x7f, 0xfb, 0x4b,
   0x40, 0x0a, 0x09, 0x00, 0x00, 0x00, 0x00, 0x00, 0x00, 0x00, 0xc0, 0xff,
   0xff, 0xe8, 0x2a, 0x85, 0x42, 0x5a, 0xff, 0xff, 0xff, 0xff, 0xaf, 0xa4,
   0x0a, 0x05, 0x51, 0x0a, 0x00, 0x00, 0x00, 0x00, 0x00, 0x00, 0x00, 0xc0,
   0xff, 0x7f, 0x90, 0x4b, 0x29, 0x88, 0xea, 0xff, 0xff, 0xff, 0xff, 0x0b,
   0xa9, 0x5f, 0x54, 0xa4, 0x04, 0x00, 0x00, 0x00, 0x00, 0x00, 0x00, 0x00,
   0xf0, 0xff, 0x7f, 0x60, 0x35, 0x91, 0x52, 0xf5, 0xff, 0xff, 0xff, 0x3f,
   0x20, 0x52, 0x0a, 0x81, 0x92, 0x0a, 0x00, 0x00, 0x00, 0x00, 0x00, 0x00,
   0x00, 0xf0, 0xff, 0x7f, 0x48, 0x57, 0x92, 0x10, 0xb6, 0x40, 0xea, 0xbf,
   0x8a, 0xa0, 0x44, 0x5d, 0x14, 0x24, 0x01, 0x00, 0x00, 0x00, 0x00, 0x00,
   0x00, 0x00, 0xfc, 0xff, 0x7f, 0xd0, 0xaa, 0x44, 0xa2, 0x5d, 0x95, 0x00,
   0x40, 0x20, 0x8a, 0x10, 0x95, 0xa8, 0x52, 0x06, 0x00, 0x00, 0x00, 0x00,
   0x00, 0x00, 0x00, 0xfe, 0xff, 0x7f, 0x40, 0x57, 0x49, 0x4a, 0x35, 0x91,
   0x2a, 0x04, 0x42, 0xa8, 0x82, 0x34, 0x11, 0x4a, 0x01, 0x00, 0x00, 0x00,
   0x00, 0x00, 0x00, 0x00, 0xff, 0xff, 0x7f, 0x50, 0xad, 0x92, 0x50, 0x4b,
   0x24, 0x44, 0x91, 0x88, 0x12, 0x29, 0x55, 0xa5, 0xa8, 0x02, 0x00, 0x00,
   0x00, 0x00, 0x00, 0x00, 0x80, 0xff, 0xff, 0x7f, 0x40, 0x5b, 0x25, 0x45,
   0x56, 0x49, 0x49, 0x25, 0xb5, 0x2a, 0x01, 0xaa, 0x14, 0x29, 0x01, 0x00,
   0x00, 0x00, 0x00, 0x00, 0x00, 0xc0, 0xff, 0xff, 0x7f, 0x40, 0xad, 0xaa,
   0x54, 0x15, 0x52, 0x95, 0x5a, 0x55, 0x55, 0x54, 0x69, 0x51, 0xa5, 0x02,
   0x00, 0x00, 0x00, 0x00, 0x00, 0x00, 0xf0, 0xff, 0xff, 0x7f, 0x40, 0x7b,
   0x55, 0xa9, 0xa5, 0x04, 0xb5, 0x6a, 0x5b, 0x05, 0x01, 0x55, 0x2b, 0xa9,
   0x02, 0x00, 0x00, 0x00, 0x00, 0x00, 0x00, 0xf0, 0xff, 0xff, 0x7f, 0x80,
   0x56, 0x55, 0x55, 0x15, 0x52, 0xd4, 0xdd, 0xb6, 0x54, 0xaa, 0xd4, 0xaa,
   0xaa, 0x0e, 0x00, 0x00, 0x00, 0x00, 0x00, 0x00, 0xfc, 0xff, 0xff, 0x7f,
   0xa0, 0xda, 0x55, 0x65, 0xa5, 0x04, 0x91, 0xb2, 0x55, 0x91, 0x24, 0xa9,
   0x52, 0xaa, 0x0f, 0x00, 0x00, 0x00, 0x00, 0x00, 0x00, 0xfe, 0xff, 0xff,
   0x7f, 0x00, 0xb5, 0x56, 0x5a, 0x29, 0x52, 0xa4, 0xaa, 0xaa, 0x4a, 0x49,
   0xd5, 0x56, 0x55, 0x1f, 0x00, 0x00, 0x00, 0x00, 0x00, 0x00, 0xff, 0xff,
   0xff, 0x7f, 0x40, 0xed, 0xda, 0xaa, 0xaa, 0x24, 0x29, 0x55, 0x89, 0x28,
   0x22, 0x52, 0x55, 0xd5, 0x3f, 0x00, 0x00, 0x00, 0x00, 0x00, 0x80, 0xff,
   0xff, 0xff, 0x7f, 0x00, 0xda, 0xad, 0x6a, 0x55, 0x49, 0xa0, 0xaa, 0x52,
   0x45, 0x49, 0x49, 0x55, 0xb5, 0x7f, 0x00, 0x00, 0x00, 0x00, 0x00, 0xe0,
   0xff, 0xff, 0xff, 0x7f, 0x80, 0x52, 0xbb, 0xad, 0x42, 0x92, 0x8a, 0x00,
   0x00, 0x00, 0x09, 0xa2, 0xb6, 0xea, 0x7f, 0x00, 0x00, 0x00, 0x00, 0x00,
   0xe0, 0xff, 0xff, 0xff, 0x7f, 0x00, 0x6c, 0x6b, 0x5b, 0x15, 0x49, 0x28,
   0x00, 0x01, 0x12, 0x50, 0x94, 0xaa, 0xea, 0xff, 0x00, 0x00, 0x00, 0x00,
   0x00, 0xf8, 0xff, 0xff, 0xff, 0x7f, 0x00, 0xd5, 0x6e, 0xb5, 0x24, 0x08,
   0x01, 0x12, 0x24, 0x20, 0x42, 0xa1, 0xda, 0xed, 0xff, 0x00, 0x00, 0x00,
   0x00, 0x00, 0xfc, 0xff, 0xff, 0xff, 0x7f, 0x00, 0xa8, 0xfb, 0xad, 0x92,
   0x22, 0x00, 0x00, 0x00, 0x01, 0x08, 0x4a, 0xaa, 0xda, 0xff, 0x03, 0x00,
   0x00, 0x00, 0x00, 0xff, 0xff, 0xff, 0xff, 0x7f, 0x00, 0x54, 0x5b, 0xab,
   0x04, 0x84, 0x12, 0x92, 0x00, 0x44, 0x40, 0x92, 0xb4, 0xc5, 0xff, 0x03,
   0x00, 0x00, 0x00, 0x00, 0xff, 0xff, 0xff, 0xff, 0x7f, 0x00, 0xa8, 0xee,
   0x2e, 0x55, 0x10, 0x00, 0x00, 0x24, 0x10, 0x92, 0x54, 0x6b, 0x8b, 0xff,
   0x07, 0x00, 0x00, 0x00, 0x00, 0xff, 0xff, 0xff, 0xff, 0x7f, 0x00, 0xd0,
   0xda, 0xaa, 0x92, 0x02, 0x42, 0x00, 0x80, 0x00, 0x10, 0x51, 0xb4, 0xc6,
   0xff, 0x0f, 0x00, 0x00, 0x00, 0x00, 0xff, 0xff, 0xff, 0xff, 0xff, 0x00,
   0x50, 0xb7, 0x5b, 0x25, 0x29, 0x08, 0x81, 0x08, 0xa4, 0x44, 0xaa, 0xdb,
   0x82, 0xff, 0x1f, 0x00, 0x00, 0x00, 0x00, 0xff, 0xff, 0xff, 0xff, 0xff,
   0x00, 0x50, 0xed, 0xbe, 0x2a, 0x21, 0x10, 0x14, 0x90, 0x00, 0x80, 0xb4,
   0xb6, 0x83, 0xff, 0x1f, 0x00, 0x00, 0x00, 0x00, 0xff, 0xff, 0xff, 0xff,
   0xff, 0x00, 0xa0, 0xb6, 0xd5, 0x56, 0x84, 0x40, 0x80, 0x04, 0x2a, 0xa9,
   0xee, 0xae, 0x82, 0xff, 0x7f, 0x00, 0x00, 0x00, 0x00, 0xff, 0xff, 0xff,
   0xff, 0xff, 0x00, 0xa0, 0xed, 0xfd, 0x6e, 0x11, 0x4a, 0x15, 0xa1, 0x00,
   0x92, 0xdc, 0xed, 0x81, 0xff, 0x7f, 0x00, 0x00, 0x00, 0x00, 0xff, 0xff,
   0xff, 0xff, 0xff, 0x00, 0x40, 0x5a, 0xf7, 0xbb, 0xa2, 0x20, 0x24, 0x0a,
   0x55, 0x49, 0x7f, 0x5b, 0x81, 0xff, 0xff, 0x01, 0x00, 0x00, 0x00, 0xff,
   0xff, 0xff, 0xff, 0xff, 0x00, 0x80, 0xd5, 0xaf, 0xff, 0x0b, 0x45, 0x55,
   0x50, 0x48, 0x52, 0xf5, 0xfb, 0x81, 0xff, 0xff, 0x01, 0x00, 0x00, 0x00,
   0xff, 0xff, 0xff, 0xff, 0xff, 0x01, 0x80, 0xb6, 0xfe, 0x7f, 0x55, 0x4a,
   0x92, 0x0a, 0x25, 0xd5, 0xdf, 0xae, 0x80, 0xff, 0xff, 0x07, 0x00, 0x00,
   0x00, 0xff, 0xff, 0xff, 0xff, 0xff, 0x01, 0x00, 0xed, 0xfa, 0xfb, 0xaf,
   0x94, 0xaa, 0xb4, 0x24, 0x55, 0xfb, 0xfb, 0x80, 0xff, 0xff, 0x07, 0x00,
   0x00, 0x00, 0xff, 0xff, 0xff, 0xff, 0xff, 0x01, 0x00, 0x5a, 0xaf, 0xff,
   0xb7, 0x6a, 0x4a, 0x45, 0xc9, 0xee, 0xad, 0xaf, 0x80, 0xff, 0xff, 0x1f,
   0x00, 0x00, 0x00, 0xff, 0xff, 0xff, 0xff, 0xff, 0x01, 0x00, 0xda, 0x7a,
   0x6f, 0xff, 0x55, 0x55, 0x5b, 0xaa, 0xba, 0x7b, 0xbd, 0x80, 0xff, 0xff,
   0x3f, 0x00, 0x00, 0x00, 0xff, 0xff, 0xff, 0xff, 0xff, 0x03, 0x00, 0xb4,
   0xed, 0xfd, 0xad, 0xd6, 0xda, 0xa2, 0xb5, 0x77, 0xf7, 0x2f, 0x80, 0xff,
   0xff, 0x7f, 0x00, 0x00, 0x00, 0xff, 0xff, 0xff, 0xff, 0xff, 0x03, 0x00,
   0x68, 0xdb, 0xdf, 0xff, 0x5f, 0xb5, 0xb6, 0xee, 0xdd, 0xae, 0x7d, 0x80,
   0xff, 0xff, 0xff, 0x01, 0x00, 0x00, 0xff, 0xff, 0xff, 0xff, 0xff, 0x03,
   0x00, 0x50, 0x6d, 0x7b, 0xdd, 0xfa, 0x6b, 0xeb, 0xbd, 0xb6, 0xfd, 0x16,
   0x00, 0xff, 0xff, 0xff, 0x07, 0x00, 0x00, 0xff, 0xff, 0xff, 0xff, 0xff,
   0x07, 0x00, 0xa0, 0xdb, 0xef, 0xfb, 0x5f, 0x6f, 0x5f, 0xeb, 0xf7, 0xd5,
   0x3d, 0x00, 0xff, 0xff, 0xff, 0x3f, 0x00, 0x00, 0xff, 0xff, 0xff, 0xff,
   0xff, 0x07, 0x00, 0x40, 0x6d, 0xbd, 0xef, 0xf6, 0xfd, 0xb5, 0xbf, 0x5e,
   0x7f, 0x17, 0x00, 0xff, 0xff, 0xff, 0xff, 0x01, 0x00, 0xff, 0xff, 0xff,
   0xff, 0xff, 0x07, 0x00, 0x40, 0x6f, 0x77, 0xdd, 0xbf, 0xaf, 0xf7, 0xf5,
   0xf5, 0xd5, 0x1d, 0x00, 0xff, 0xff, 0xff, 0xff, 0x1f, 0x00, 0xff, 0xff,
   0xff, 0xff, 0xff, 0x0f, 0x00, 0x00, 0xb5, 0xdd, 0xf7, 0xfe, 0xfb, 0xde,
   0xdf, 0xaf, 0xbe, 0x1a, 0x00, 0xff, 0xff, 0xff, 0xff, 0xff, 0x00, 0xff,
   0xff, 0xff, 0xff, 0xff, 0x0f, 0x00, 0x00, 0xb6, 0xf5, 0xde, 0xf5, 0xff,
   0x7f, 0xbb, 0xfa, 0xeb, 0x03, 0x00, 0xff, 0xff, 0xff, 0xff, 0xff, 0x1f,
   0xff, 0xff, 0xff, 0xff, 0xff, 0x1f, 0x00, 0x00, 0x6c, 0x5b, 0x7b, 0x5f,
   0xef, 0xda, 0xef, 0x57, 0x5d, 0x03, 0x00, 0xfe, 0xff, 0xff, 0xff, 0xff,
   0xff, 0xff, 0xff, 0xff, 0xff, 0xff, 0x1f, 0x00, 0x00, 0x58, 0xeb, 0xee,
   0xfb, 0xfd, 0x7f, 0x7d, 0xdd, 0xf5, 0x02, 0x00, 0xfe, 0xff, 0xff, 0xff,
   0xff, 0xff, 0xff, 0xff, 0xff, 0xff, 0xff, 0x3f, 0x00, 0x00, 0x60, 0xad,
   0x5d, 0xef, 0xd7, 0xea, 0xeb, 0x6b, 0xaf, 0x00, 0x00, 0xfe, 0xff, 0xff,
   0xff, 0xff, 0xff, 0xff, 0xff, 0xff, 0xff, 0xff, 0x3f, 0x00, 0x00, 0xa0,
   0x7b, 0x7b, 0xbd, 0xfe, 0x5f, 0xaf, 0xde, 0xba, 0x00, 0x00, 0xfe, 0xff,
   0xff, 0xff, 0xff, 0xff, 0xff, 0xff, 0xff, 0xff, 0xff, 0x3f, 0x00, 0x00,
   0x40, 0xad, 0xd5, 0xeb, 0xdb, 0xf6, 0x7d, 0xb5, 0x55, 0x00, 0x00, 0xfe,
   0xff, 0xff, 0xff, 0xff, 0xff, 0xff, 0xff, 0xff, 0xff, 0xff, 0x7f, 0x00,
   0x00, 0x00, 0x75, 0x7d, 0x7f, 0xdf, 0x6f, 0xd7, 0x6d, 0x17, 0x00, 0x00,
   0xfe, 0xff, 0xff, 0xff, 0xff, 0xff, 0xff, 0xff, 0xff, 0xff, 0xff, 0x7f,
   0x00, 0x00, 0x00, 0xed, 0xd5, 0xea, 0x7a, 0xbd, 0xbd, 0xd6, 0x2a, 0x00,
   0x00, 0xfe, 0xff, 0xff, 0xff, 0xff, 0xff, 0xff, 0xff, 0xff, 0xff, 0xff,
   0x7f, 0x00, 0x00, 0x00, 0x98, 0xb5, 0xdf, 0xef, 0xfb, 0xeb, 0x5a, 0x05,
   0x00, 0x00, 0xfe, 0xff, 0xff, 0xff, 0xff, 0xff, 0xff, 0xff, 0xff, 0xff,
   0xff, 0xff, 0x00, 0x00, 0x00, 0x68, 0x6b, 0xb5, 0xba, 0x6f, 0xdf, 0x6d,
   0x05, 0x00, 0x00, 0xfe, 0xff, 0xff, 0xff, 0xff, 0xff, 0xff, 0xff, 0xff,
   0xff, 0xff, 0xff, 0x00, 0x00, 0x00, 0x50, 0xab, 0xed, 0x77, 0xff, 0x5a,
   0xab, 0x02, 0x00, 0x00, 0xfe, 0xff, 0xff, 0xff, 0xff, 0xff, 0xff, 0xff,
   0xff, 0xff, 0xff, 0xff, 0x01, 0x00, 0x00, 0xa0, 0x75, 0x5b, 0xfd, 0xfd,
   0x6b, 0xad, 0x02, 0x00, 0x00, 0xfe, 0xff, 0xff, 0xff, 0xff, 0xff, 0xff,
   0xff, 0xff, 0xff, 0xff, 0xff, 0x01, 0x00, 0x00, 0x00, 0x57, 0xbb, 0xb7,
   0x6b, 0xdf, 0xaa, 0x00, 0x00, 0x00, 0xfe, 0xff, 0xff, 0xff, 0xff, 0xff,
   0xff, 0xff, 0xff, 0xff, 0xff, 0xff, 0x03, 0x00, 0x00, 0x80, 0xea, 0x76,
   0xfd, 0xfe, 0xaa, 0x55, 0x00, 0x00, 0x00, 0xfe, 0xff, 0xff, 0xff, 0xff,
   0xff, 0xff, 0xff, 0xff, 0xff, 0xff, 0xff, 0x03, 0x00, 0x00, 0x00, 0xaa,
   0xd6, 0xd7, 0xfd, 0xbb, 0x2a, 0x00, 0x00, 0x00, 0xff, 0xff, 0xff, 0xff,
   0xff, 0xff, 0xff, 0xff, 0xff, 0xff, 0xff, 0xff, 0x07, 0x00, 0x00, 0x00,
   0xd4, 0xad, 0x7e, 0xb7, 0x57, 0x15, 0x00, 0x00, 0x00, 0xfe, 0xff, 0xff,
   0xff, 0xff, 0xff, 0xff, 0xff, 0xff, 0xff, 0xff, 0xff, 0x07, 0x00, 0x00,
   0x00, 0x28, 0xf5, 0xed, 0xfe, 0x6e, 0x05, 0x00, 0x00, 0x00, 0xff, 0xff,
   0xff, 0xff, 0xff, 0xff, 0xff, 0xff, 0xff, 0xff, 0xff, 0xff, 0x07, 0x00,
   0x00, 0x00, 0x50, 0x9b, 0xbe, 0xbb, 0x9d, 0x02, 0x00, 0x00, 0x00, 0xff,
   0xff, 0xff, 0xff, 0xff, 0xff, 0xff, 0xff, 0xff, 0xff, 0xff, 0xff, 0x07,
   0x00, 0x00, 0x00, 0xa0, 0xf6, 0x75, 0xf7, 0x55, 0x01, 0x00, 0x00, 0x00,
   0xff, 0xff, 0xff, 0xff, 0xff, 0xff, 0xff, 0xff, 0xff, 0xff, 0xff, 0xff,
   0x0f, 0x00, 0x00, 0x00, 0x80, 0x54, 0xdf, 0xde, 0xab, 0x00, 0x00, 0x00,
   0x00, 0xff, 0xff, 0xff, 0xff, 0xff, 0xff, 0xff, 0xff, 0xff, 0xff, 0xff,
   0xff, 0x0f, 0x00, 0x00, 0x00, 0x80, 0xaa, 0xba, 0xba, 0x7f, 0x00, 0x00,
   0x00, 0x80, 0xff, 0xff, 0xff, 0xff, 0xff, 0xff, 0xff, 0xff, 0xff, 0xff,
   0xff, 0xff, 0x0f, 0x00, 0x00, 0x00, 0x00, 0xd4, 0xf6, 0xfe, 0x1f, 0x00,
   0x00, 0x00, 0x00, 0xff, 0xff, 0xff, 0xff, 0xff, 0xff, 0xff, 0xff, 0xff,
   0xff, 0xff, 0xff, 0x1f, 0x00, 0x00, 0x00, 0x00, 0xa8, 0xb5, 0xfa, 0x0f,
   0x00, 0x00, 0x00, 0x80, 0xff, 0xff, 0xff, 0xff, 0xff, 0xff, 0xff, 0xff,
   0xff, 0xff, 0xff, 0xff, 0x1f, 0x00, 0x00, 0x00, 0x00, 0x54, 0xf6, 0xff,
   0x03, 0x00, 0x00, 0x00, 0x80, 0xff, 0xff, 0xff, 0xff, 0xff, 0xff, 0xff,
   0xff, 0xff, 0xff, 0xff, 0xff, 0x1f, 0x00, 0x00, 0x00, 0x00, 0xe0, 0xf5,
   0xff, 0x01, 0x00, 0x00, 0x00, 0x80, 0xff, 0xff, 0xff, 0xff, 0xff, 0xff,
   0xff, 0xff, 0xff, 0xff, 0xff, 0xff, 0x3f, 0x00, 0x00, 0x00, 0x00, 0x80,
   0xff, 0x3f, 0x00, 0x00, 0x00, 0x00, 0x80, 0xff, 0xff, 0xff, 0xff, 0xff,
   0xff, 0xff, 0xff, 0xff, 0xff, 0xff, 0xff, 0x1f, 0x00, 0x00, 0x00, 0x00,
   0x00, 0xfe, 0x2f, 0x00, 0x00, 0x00, 0x00, 0x80, 0xff, 0xff, 0xff, 0xff,
   0xff, 0xff, 0xff, 0xff, 0xff, 0xff, 0xff, 0xff, 0x3f, 0x00, 0x00, 0x00,
   0x00, 0x00, 0xf8, 0x03, 0x00, 0x00, 0x00, 0x00, 0x80, 0xff, 0xff, 0xff,
   0xff, 0xff, 0xff, 0xff, 0xff, 0xff, 0xff, 0xff, 0xff, 0x3f, 0x00, 0x00,
   0x00, 0x00, 0x00, 0x30, 0x02, 0x00, 0x00, 0x00, 0x00, 0x80, 0xff, 0xff,
   0xff, 0xff, 0xff, 0xff, 0xff, 0xff, 0xff, 0xff, 0xff, 0xff, 0x7f, 0x00,
   0x00, 0x00, 0x00, 0x00, 0x80, 0x00, 0x00, 0x00, 0x00, 0x00, 0x80, 0xff,
   0xff, 0xff, 0xff, 0xff, 0xff, 0xff, 0xff, 0xff, 0xff, 0xff, 0xff, 0x3f,
   0x00, 0x00, 0x00, 0x00, 0x00, 0xf8, 0x0f, 0x00, 0x00, 0x00, 0x00, 0x80,
   0xff, 0xff, 0xff, 0xff, 0xff, 0xff, 0xff, 0xff, 0xff, 0xff, 0xff, 0xff,
   0x7f, 0x00, 0x00, 0x00, 0x00, 0x00, 0xf8, 0x1f, 0x00, 0x00, 0x00, 0x00,
   0xc0, 0xff, 0xff, 0xff, 0xff, 0xff, 0xff, 0xff, 0xff, 0xff, 0xff, 0xff,
   0xff, 0x7f, 0x00, 0x00, 0x00, 0x00, 0x00, 0xfe, 0x7a, 0x00, 0x00, 0x00,
   0x00, 0x80, 0xff, 0xff, 0xff, 0xff, 0xff, 0xff, 0xff, 0xff, 0xff, 0xff,
   0xff, 0xff, 0xff, 0x00, 0x00, 0x00, 0x00, 0x00, 0x3f, 0xd7, 0x00, 0x00,
   0x00, 0x00, 0x80, 0xff, 0xff, 0xff, 0xff, 0xff, 0xff, 0xff, 0xff, 0xff,
   0xff, 0xff, 0xff, 0xff, 0x00, 0x00, 0x00, 0x00, 0x80, 0x8f, 0x1f, 0x01,
   0x00, 0x00, 0x00, 0x80, 0xff, 0xff, 0xff, 0xff, 0xff, 0xff, 0xff, 0xff,
   0xff, 0xff, 0xff, 0xff, 0xff, 0x00, 0x00, 0x00, 0x00, 0xc0, 0xe3, 0x7f,
   0x04, 0x00, 0x00, 0x00, 0x80, 0xff, 0xff, 0xff, 0xff, 0xff, 0xff, 0xff,
   0xff, 0xff, 0xff, 0xff, 0xff, 0xff, 0x00, 0x00, 0x00, 0x00, 0x60, 0xf8,
   0xff, 0x00, 0x00, 0x00, 0x00, 0x80, 0xff, 0xff, 0xff, 0xff, 0xff, 0xff,
   0xff, 0xff, 0xff, 0xff, 0xff, 0xff, 0xff, 0x01, 0x00, 0x00, 0x00, 0x30,
   0xfc, 0xff, 0x03, 0x00, 0x00, 0x00, 0x80, 0xff, 0xff, 0xff, 0xff, 0xff,
   0xff, 0xff, 0xff, 0xff, 0xff, 0xff, 0xff, 0xff, 0x01, 0x00, 0x00, 0x00,
   0x18, 0xff, 0xff, 0x05, 0x00, 0x00, 0x00, 0x00, 0xff, 0xff, 0xff, 0xff,
   0xff, 0xff, 0xff, 0xff, 0xff, 0xff, 0xff, 0xff, 0xff, 0x01, 0x00, 0x00,
   0x00, 0x88, 0xff, 0xff, 0x4f, 0x00, 0x00, 0x00, 0xc0, 0xff, 0xff, 0xff,
   0xff, 0xff, 0xff, 0xff, 0xff, 0xff, 0xff, 0xff, 0xff, 0xff, 0x01, 0x00,
   0x00, 0x00, 0x00, 0xff, 0xbf, 0x1b, 0x00, 0x00, 0x00, 0x00, 0xff, 0xff,
   0xff, 0xff, 0xff, 0xff, 0xff, 0xff, 0xff, 0xff, 0xff, 0xff, 0xff, 0x03,
   0x00, 0x00, 0x00, 0x03, 0xf8, 0xff, 0x4f, 0x00, 0x00, 0x00, 0x80, 0xff,
   0xff, 0xff, 0xff, 0xff, 0xff, 0xff, 0xff, 0xff, 0xff, 0xff, 0xff, 0xff,
   0x03, 0x00, 0x00, 0xc0, 0x23, 0xe0, 0x7f, 0x03, 0x01, 0x00, 0x00, 0x00,
   0xff, 0xff, 0xff, 0xff, 0xff, 0xff, 0xff, 0xff, 0xff, 0xff, 0xff, 0xff,
   0xff, 0x07, 0x00, 0x00, 0xc0, 0xf3, 0x81, 0xfb, 0xf0, 0x03, 0x00, 0x00,
   0x80, 0xff, 0xff, 0xff, 0xff, 0xff, 0xff, 0xff, 0xff, 0xff, 0xff, 0xff,
   0xff, 0xff, 0x03, 0x00, 0x00, 0xe0, 0xb9, 0x0f, 0x2e, 0xfc, 0x03, 0x00,
   0x00, 0x00, 0xff, 0xff, 0xff, 0xff, 0xff, 0xff, 0xff, 0xff, 0xff, 0xff,
   0xff, 0xff, 0xff, 0x07, 0x00, 0x00, 0xf0, 0xfd, 0x3d, 0x18, 0x7e, 0x07,
   0x00, 0x00, 0x80, 0xfe, 0xff, 0xff, 0xff, 0xff, 0xff, 0xff, 0xff, 0xff,
   0xff, 0xff, 0xff, 0xff, 0x07, 0x00, 0x00, 0xf8, 0xfd, 0xeb, 0x80, 0xff,
   0x07, 0x00, 0x00, 0x00, 0xfd, 0xff, 0xff, 0xff, 0xff, 0xff, 0xff, 0xff,
   0xff, 0xff, 0xff, 0xff, 0xff, 0x0f, 0x00, 0x00, 0xfc, 0xfe, 0xbf, 0xc1,
   0xff, 0x0f, 0x00, 0x00, 0x80, 0xfd, 0xff, 0xff, 0xff, 0xff, 0xff, 0xff,
   0xff, 0xff, 0xff, 0xff, 0xff, 0xff, 0x07, 0x00, 0x00, 0xfe, 0xff, 0xff,
   0xc0, 0xff, 0x1f, 0x00, 0x00, 0x00, 0xfd, 0xff, 0xff, 0xff, 0xff, 0xff,
   0xff, 0xff, 0xff, 0xff, 0xff, 0xff, 0xff, 0x0f, 0x00, 0x00, 0xfe, 0xfe,
   0xff, 0x80, 0xff, 0x1f, 0x00, 0x00, 0x80, 0xfc, 0xff, 0xff, 0xff, 0xff,
   0xff, 0xff, 0xff, 0xff, 0xff, 0xff, 0xff, 0xff, 0x0f, 0x00, 0x80, 0xfa,
   0xff, 0x7f, 0x94, 0xff, 0x35, 0x00, 0x00, 0x00, 0xf9, 0xff, 0xff, 0xff,
   0xff, 0xff, 0xff, 0xff, 0xff, 0xff, 0xff, 0xff, 0xff, 0x1f, 0x00, 0x80,
   0xfa, 0xfe, 0x3f, 0x1e, 0x1f, 0x15, 0x00, 0x00, 0x80, 0xfc, 0xff, 0xff,
   0xff, 0xff, 0xff, 0xff, 0xff, 0xff, 0xff, 0xff, 0xff, 0xff, 0x1f, 0x00,
   0xa0, 0xea, 0xf7, 0x3f, 0x7b, 0x6f, 0x52, 0x00, 0x00, 0x80, 0xf8, 0xff,
   0xff, 0xff, 0xff, 0xff, 0xff, 0xff, 0xff, 0xff, 0xff, 0xff, 0xff, 0x1f,
   0x00, 0x40, 0xd7, 0xde, 0x1f, 0x6d, 0x03, 0x08, 0x00, 0x00, 0x00, 0xfa,
   0xff, 0xff, 0xff, 0xff, 0xff, 0xff, 0xff, 0xff, 0xff, 0xff, 0xff, 0xff,
   0x1f, 0x00, 0x00, 0xfa, 0xfe, 0x9f, 0xff, 0x48, 0x40, 0x00, 0x00, 0x00,
   0xfa, 0xff, 0xff, 0xff, 0xff, 0xff, 0xff, 0xff, 0xff, 0xff, 0xff, 0xff,
   0xff, 0x3f, 0x00, 0x00, 0x44, 0xf9, 0xcf, 0xf6, 0x01, 0x00, 0x00, 0x00,
   0x00, 0xf8, 0xff, 0xff, 0xff, 0xff, 0xff, 0xff, 0xff, 0xff, 0xff, 0xff,
   0xff, 0xff, 0x3f, 0x00, 0x00, 0x00, 0xf8, 0xef, 0xef, 0x01, 0x00, 0x00,
   0x00, 0x00, 0xfc, 0xff, 0xff, 0xff, 0xff, 0xff, 0xff, 0xff, 0xff, 0xff,
   0xff, 0xff, 0xff, 0x7f, 0x00, 0x00, 0x80, 0x20, 0x63, 0xfd, 0x00, 0x00,
   0x00, 0x00, 0x00, 0xf8, 0xff, 0xff, 0xff, 0xff, 0xff, 0xff, 0xff, 0xff,
   0xff, 0xff, 0xff, 0xff, 0x3f, 0x00, 0x00, 0x00, 0x40, 0xfa, 0xef, 0x00,
   0x00, 0x00, 0x00, 0x00, 0xf8, 0xff, 0xff, 0xff, 0xff, 0xff, 0xff, 0xff,
   0xff, 0xff, 0xff, 0xff, 0xff, 0x7f, 0x00, 0x00, 0x00, 0x80, 0xf8, 0x7a,
   0x00, 0x00, 0x00, 0x00, 0x00, 0xf8, 0xff, 0xff, 0xff, 0xff, 0xff, 0xff,
   0xff, 0xff, 0xff, 0xff, 0xff, 0xff, 0x7f, 0x00, 0x00, 0x00, 0x80, 0xf8,
   0x7f, 0x00, 0x00, 0x00, 0x00, 0x00, 0xf8, 0xff, 0xff, 0xff, 0xff, 0xff,
   0xff, 0xff, 0xff, 0xff, 0xff, 0xff, 0xff, 0xff, 0x00, 0x00, 0x00, 0x00,
   0x63, 0xfb, 0x00, 0x00, 0x00, 0x00, 0x00, 0xf8, 0xff, 0xff, 0xff, 0xff,
   0xff, 0xff, 0xff, 0xff, 0xff, 0xff, 0xff, 0xff, 0x7f, 0x00, 0x00, 0x00,
   0x00, 0xe7, 0x7f, 0x00, 0x00, 0x00, 0x00, 0x00, 0xf8, 0xff, 0xff, 0xff,
   0xff, 0xff, 0xff, 0xff, 0xff, 0xff, 0xff, 0xff, 0xff, 0xff, 0x00, 0x00,
   0x00, 0x00, 0xb2, 0x1f, 0x00, 0x00, 0x00, 0x00, 0x00, 0xf8, 0xff, 0xff,
   0xff, 0xff, 0xff, 0xff, 0xff, 0xff, 0xff, 0xff, 0xff, 0xff, 0xff, 0x00,
   0x00, 0x00, 0x00, 0x6e, 0x05, 0x00, 0x00, 0x00, 0x00, 0x00, 0xf8, 0xff,
   0xff, 0xff, 0xff, 0xff };
